<svg width="128" height="109" viewBox="0 0 128 109" fill="none" xmlns="http://www.w3.org/2000/svg">
<path d="M65.6579 53.6873C65.6579 43.0218 57.0918 34.3756 46.525 34.3756C35.9582 34.3756 27.3921 43.0218 27.3921 53.6873C27.3921 64.3529 35.9582 72.999 46.525 72.999C57.0918 72.999 65.6579 64.3529 65.6579 53.6873Z" fill="#F08F31" fill-opacity="0.1"/>
<path d="M82.798 77.2888C77.1638 81.02 71.2724 82.5294 64.7138 80.5925C57.4343 78.4427 51.3034 69.4985 51.9951 61.9689C52.1416 60.3747 52.6732 59.3616 54.4038 58.97C57.6118 58.2441 60.8064 57.6583 64.1196 57.8661C65.2162 57.9349 65.6504 58.3114 65.8031 59.4366C66.0963 61.5971 67.4887 62.8173 69.7248 62.8354C76.8154 62.8927 83.9067 62.8699 90.9976 62.8618C91.6331 62.8611 92.5514 62.9265 92.567 62.0841C92.5871 61.0026 91.5561 61.3 90.9151 61.297C85.7308 61.2723 80.5464 61.2763 75.3621 61.2954C74.3601 61.2991 73.6103 61.1409 73.5246 59.907C73.4272 58.5055 74.1489 58.1889 75.3726 58.1963C80.1991 58.2257 85.0262 58.2252 89.8527 58.1824C90.7963 58.1741 92.4237 58.5763 92.4241 57.374C92.4246 55.9953 90.8005 56.673 89.9252 56.6589C85.2188 56.583 80.5105 56.6141 75.8029 56.6296C74.601 56.6336 73.511 56.6566 73.5091 54.951C73.5071 53.1543 74.751 53.363 75.8645 53.3569C80.7507 53.3301 85.6372 53.3346 90.5234 53.2983C91.1999 53.2933 91.9632 53.5328 92.6037 52.8231C92.3349 51.666 91.3547 51.9673 90.6278 51.9628C85.5629 51.9316 80.4976 51.9586 75.4326 51.9337C73.7702 51.9255 73.1321 50.988 73.6752 49.5307C74.0667 48.4801 74.9647 48.6154 75.7759 48.6126C80.7814 48.5951 85.7871 48.6142 90.7925 48.5796C91.5007 48.5748 92.3596 48.8886 92.8891 48.0355C92.6796 47.0755 91.9005 47.2792 91.3088 47.2771C84.1582 47.2511 77.0073 47.2292 69.8567 47.2592C67.7364 47.2681 66.6492 48.0948 66.1381 50.1535C65.8649 51.254 65.3073 51.2554 64.3651 51.3298C58.9195 51.7601 53.4048 51.8306 48.325 54.3193C43.08 56.889 39.2306 60.7316 36.9512 66.1518C36.4791 67.2744 36.5891 67.871 37.5656 68.6892C41.5684 72.0432 43.7636 76.3122 43.6041 81.6406C43.5939 81.9829 43.6809 82.3587 43.1567 82.8138C37.4497 72.2113 27.9174 67.7387 15.9401 66.5313C17.7581 65.1013 19.367 64.7267 20.949 64.4084C23.9082 63.8132 26.8922 63.8616 29.7934 64.7251C31.0525 65.0999 31.7807 64.9325 32.3039 63.6612C33.122 61.6735 34.4178 59.9367 35.4522 58.0656C37.432 54.4845 37.4417 50.7115 36.1802 46.7495C35.161 47.0346 34.3211 47.2794 33.476 47.5044C23.8653 50.0626 15.1629 42.3821 16.409 32.4834C16.8888 28.6718 18.4211 25.1461 19.2547 21.4311C20.1625 17.3855 20.6242 13.3497 19.8054 9.22573C19.2004 6.17868 17.6919 3.69799 15.4083 1.64333C15.0753 1.34372 14.5184 1.21434 14.5571 0.607302C14.8902 0.291706 15.2438 0.469253 15.568 0.572682C22.8848 2.9072 30.2598 5.11122 36.9984 8.91172C43.9917 12.8559 49.3109 18.2768 51.555 26.2122C52.8591 30.8233 52.3029 35.0725 48.6166 38.5276C48.1845 38.9326 47.7265 39.3262 47.2273 39.6403C44.3884 41.4266 43.9396 41.2373 42.057 38.5314C40.8642 36.817 40.2216 35.3644 40.7154 33.0466C41.6769 28.5329 36.3624 22.5356 31.7264 22.3325C27.8848 22.1642 25.5043 25.3874 26.5232 29.5799C27.6772 34.329 31.6885 37.7847 35.6833 37.8845C36.4996 37.905 36.9933 38.3397 37.4691 38.8988C39.8942 41.7485 41.1786 45.1013 41.8237 48.7369C41.9759 49.5948 42.1102 50.456 42.2644 51.3864C43.4679 51.2654 44.2081 50.625 45.0127 50.1738C47.4311 48.8177 50.11 48.1798 52.7176 47.3616C53.7222 47.0464 54.169 46.5568 54.284 45.5211C54.4541 43.989 54.6324 42.4452 55.165 40.978C57.5791 34.3273 62.7341 31.3197 69.3815 30.3659C79.7433 28.879 88.8881 32.0585 97.3766 37.7396C105.439 43.1357 111.792 50.3422 118.286 57.4015C119.616 58.8476 120.943 60.2969 122.256 61.7595C122.588 62.1298 123.137 62.4104 122.968 63.0598C122.559 63.3019 122.261 63.0392 121.973 62.8624C117.041 59.8333 111.812 59.8735 106.468 61.4145C100.49 63.1381 95.6186 66.7723 90.8702 70.5982C88.182 72.7641 85.807 75.3076 82.798 77.2888Z" fill="#63A430"/>
<path d="M56.5384 44.9251C56.5384 34.1965 81.7509 18.9976 116.44 57.9784C100.884 44.2098 69.234 24.0042 56.5384 44.9251Z" fill="#B3D573"/>
<path d="M55.1079 64.2372C58.8846 74.0719 68.4115 86.8391 95.877 64.2372C82.8237 77.4693 60.4722 89.8074 55.1079 64.2372Z" fill="#B3D573"/>
<path d="M33.2928 44.9253C27.6304 45.7597 15.9123 43.2087 21.4912 19.8916C17.9746 31.0971 16.8421 50.5042 33.2928 44.9253Z" fill="#B3D573"/>
<path d="M24.8886 5.40778C36.4518 12.2026 56.6457 28.403 44.9156 38.8456C51.5316 34.4946 56.7887 21.7154 24.8886 5.40778Z" fill="#B3D573"/>
<path d="M6.95689 91.958C5.72352 92.3638 4.76603 93.0372 4.08443 93.9785C3.41906 94.9035 3.08638 96.0558 3.08638 97.4352C3.08638 98.0519 3.14318 98.4738 3.25678 98.701C3.37038 98.9282 3.42718 99.0662 3.42718 99.1148C1.69072 99.1148 0.82249 98.3764 0.82249 96.8996C0.82249 95.8935 1.20386 94.8873 1.9666 93.8811C2.74558 92.8587 3.73552 92.0311 4.93643 91.3982C6.15358 90.749 7.3626 90.4244 8.56352 90.4244C9.16398 90.4244 9.78066 90.538 10.4136 90.7652L9.85369 103.594L15.2091 90.7652H18.7145L16.1585 108.682H12.6531L14.2111 97.7516L9.6346 108.682H6.29963L6.78649 97.703L2.72123 108.682H0.773804L6.95689 91.958Z" fill="#5C6755"/>
<path d="M22.0278 108.828C20.8269 108.828 19.8937 108.519 19.2284 107.903C18.563 107.27 18.2303 106.288 18.2303 104.957C18.2303 103.837 18.4494 102.604 18.8876 101.257C19.3257 99.91 20.0398 98.7497 21.0297 97.776C22.0197 96.786 23.2774 96.2911 24.8029 96.2911C26.588 96.2911 27.4806 97.07 27.4806 98.628C27.4806 99.5368 27.2209 100.373 26.7016 101.135C26.1823 101.898 25.4926 102.515 24.6325 102.985C23.7724 103.44 22.8554 103.699 21.8817 103.764C21.8493 104.251 21.833 104.576 21.833 104.738C21.833 105.533 21.971 106.077 22.2469 106.369C22.5228 106.645 22.969 106.783 23.5857 106.783C24.4621 106.783 25.2086 106.58 25.8253 106.174C26.4582 105.769 27.1479 105.152 27.8944 104.324H28.7221C26.9207 107.326 24.6893 108.828 22.0278 108.828ZM22.0765 102.596C22.6769 102.563 23.2449 102.352 23.7805 101.963C24.3322 101.573 24.7704 101.078 25.095 100.478C25.4358 99.8776 25.6062 99.2447 25.6062 98.5793C25.6062 97.9139 25.4033 97.5812 24.9976 97.5812C24.4134 97.5812 23.8373 98.0924 23.2693 99.1148C22.7175 100.137 22.3199 101.298 22.0765 102.596Z" fill="#5C6755"/>
<path d="M31.0538 108.828C30.1288 108.828 29.358 108.511 28.7413 107.878C28.1246 107.245 27.8162 106.255 27.8162 104.908C27.8162 103.708 28.0516 102.45 28.5222 101.135C29.009 99.8046 29.7231 98.6848 30.6644 97.776C31.6218 96.851 32.7578 96.3884 34.0724 96.3884C34.7377 96.3884 35.2327 96.502 35.5573 96.7292C35.8818 96.9564 36.0441 97.2567 36.0441 97.6299V97.8003L36.3119 96.5102H39.8173L38.0646 104.787C37.9997 105.03 37.9672 105.29 37.9672 105.566C37.9672 106.264 38.2999 106.612 38.9653 106.612C39.4197 106.612 39.8092 106.401 40.1337 105.98C40.4745 105.558 40.7423 105.006 40.937 104.324H41.9594C41.359 106.077 40.6125 107.27 39.7199 107.903C38.8436 108.519 37.9591 108.828 37.0665 108.828C36.3849 108.828 35.8332 108.641 35.4112 108.268C35.0055 107.878 34.7621 107.318 34.6809 106.588C34.2103 107.253 33.6829 107.797 33.0986 108.219C32.5306 108.625 31.849 108.828 31.0538 108.828ZM32.6361 106.466C33.0418 106.466 33.4394 106.28 33.8289 105.906C34.2346 105.517 34.5105 104.99 34.6566 104.324L35.825 98.8227C35.825 98.6118 35.7439 98.4089 35.5816 98.2142C35.4193 98.0032 35.1678 97.8977 34.827 97.8977C34.1778 97.8977 33.5936 98.2791 33.0743 99.0418C32.555 99.7883 32.1493 100.697 31.8572 101.768C31.565 102.823 31.419 103.756 31.419 104.568C31.419 105.379 31.5326 105.898 31.7598 106.126C32.0032 106.353 32.2953 106.466 32.6361 106.466Z" fill="#5C6755"/>
<path d="M43.5507 108.828C42.7717 108.828 42.1388 108.584 41.6519 108.097C41.1813 107.594 40.946 106.848 40.946 105.858C40.946 105.452 41.0109 104.925 41.1407 104.276L43.7454 92.0798L47.3482 91.5929L44.5487 104.738C44.4838 104.981 44.4514 105.217 44.4514 105.444C44.4514 106.093 44.784 106.418 45.4494 106.418C45.7415 106.418 46.0012 106.369 46.2284 106.272C46.1635 107.083 45.8714 107.716 45.352 108.17C44.849 108.609 44.2485 108.828 43.5507 108.828Z" fill="#5C6755"/>
<path d="M57.5923 93.1995L61.1951 92.7127L59.4667 100.843C60.2457 100.778 60.9597 100.437 61.6089 99.8208C62.2743 99.2041 62.7936 98.4414 63.1668 97.5326C63.5401 96.6238 63.7267 95.7312 63.7267 94.8548C63.7267 93.8811 63.4752 93.0859 62.9721 92.4692C62.469 91.8526 61.7144 91.5442 60.7082 91.5442C58.7283 91.5442 57.1785 92.0635 56.0587 93.1022C54.9552 94.1408 54.4034 95.5932 54.4034 97.4595C54.4034 98.06 54.4602 98.4819 54.5738 98.7254C54.6874 98.9526 54.7442 99.0824 54.7442 99.1148C53.8679 99.1148 53.2106 98.9363 52.7724 98.5793C52.3505 98.206 52.1395 97.5975 52.1395 96.7536C52.1395 95.715 52.5615 94.7088 53.4053 93.7351C54.2655 92.7451 55.3609 91.9499 56.6916 91.3495C58.0224 90.7328 59.3531 90.4244 60.6839 90.4244C61.9659 90.4244 63.037 90.6435 63.8971 91.0817C64.7572 91.5199 65.3901 92.1041 65.7959 92.8344C66.2178 93.5484 66.4288 94.3436 66.4288 95.22C66.4288 96.2748 66.1367 97.3054 65.5524 98.3115C64.9844 99.3177 64.1649 100.145 63.0938 100.794C62.0227 101.427 60.7893 101.744 59.3937 101.744H59.272L57.7871 108.682H54.2817L57.5923 93.1995Z" fill="#5C6755"/>
<path d="M68.236 108.828C67.4571 108.828 66.8242 108.584 66.3373 108.097C65.8667 107.61 65.6314 106.88 65.6314 105.906C65.6314 105.501 65.6963 104.973 65.8261 104.324L68.4308 92.1284L72.0335 91.6416L69.2341 104.787C69.1692 105.03 69.1367 105.29 69.1367 105.566C69.1367 105.89 69.2098 106.126 69.3558 106.272C69.5181 106.401 69.7778 106.466 70.1348 106.466C70.6054 106.466 71.0436 106.272 71.4493 105.882C71.855 105.476 72.1471 104.957 72.3256 104.324H73.348C72.7476 106.077 71.9767 107.27 71.0355 107.903C70.0942 108.519 69.1611 108.828 68.236 108.828Z" fill="#5C6755"/>
<path d="M75.1154 108.828C74.1903 108.828 73.4195 108.511 72.8028 107.878C72.1861 107.245 71.8778 106.255 71.8778 104.908C71.8778 103.708 72.1131 102.45 72.5837 101.135C73.0706 99.8046 73.7846 98.6848 74.7259 97.776C75.6834 96.851 76.8194 96.3884 78.1339 96.3884C78.7993 96.3884 79.2942 96.502 79.6188 96.7292C79.9434 96.9564 80.1057 97.2567 80.1057 97.6299V97.8003L80.3734 96.5102H83.8788L82.1261 104.787C82.0612 105.03 82.0287 105.29 82.0287 105.566C82.0287 106.264 82.3614 106.612 83.0268 106.612C83.4812 106.612 83.8707 106.401 84.1953 105.98C84.5361 105.558 84.8038 105.006 84.9986 104.324H86.021C85.4205 106.077 84.674 107.27 83.7814 107.903C82.9051 108.519 82.0206 108.828 81.1281 108.828C80.4465 108.828 79.8947 108.641 79.4727 108.268C79.067 107.878 78.8236 107.318 78.7425 106.588C78.2718 107.253 77.7444 107.797 77.1602 108.219C76.5922 108.625 75.9106 108.828 75.1154 108.828ZM76.6977 106.466C77.1034 106.466 77.501 106.28 77.8904 105.906C78.2962 105.517 78.5721 104.99 78.7181 104.324L79.8866 98.8227C79.8866 98.6118 79.8054 98.4089 79.6431 98.2142C79.4808 98.0032 79.2293 97.8977 78.8885 97.8977C78.2394 97.8977 77.6551 98.2791 77.1358 99.0418C76.6165 99.7883 76.2108 100.697 75.9187 101.768C75.6266 102.823 75.4805 103.756 75.4805 104.568C75.4805 105.379 75.5941 105.898 75.8213 106.126C76.0647 106.353 76.3569 106.466 76.6977 106.466Z" fill="#5C6755"/>
<path d="M93.6736 108.828C92.6836 108.828 91.9533 108.568 91.4827 108.049C91.0283 107.513 90.8011 106.856 90.8011 106.077C90.8011 105.736 90.8417 105.355 90.9228 104.933C91.004 104.495 91.0851 104.073 91.1662 103.667C91.2636 103.261 91.3285 103.002 91.361 102.888C91.4908 102.32 91.6125 101.76 91.7261 101.208C91.8397 100.657 91.8965 100.21 91.8965 99.8695C91.8965 99.0418 91.6044 98.628 91.0202 98.628C90.5982 98.628 90.225 98.839 89.9004 99.2609C89.5758 99.6666 89.3162 100.202 89.1214 100.868L87.4661 108.682H83.9608L86.5411 96.5102H90.0465L89.7787 97.776C90.5901 96.8672 91.5395 96.4128 92.6268 96.4128C93.4545 96.4128 94.1117 96.64 94.5986 97.0944C95.0854 97.5488 95.3289 98.2385 95.3289 99.1635C95.3289 99.6342 95.2721 100.162 95.1585 100.746C95.0449 101.314 94.8826 102.012 94.6716 102.839C94.5418 103.342 94.4201 103.837 94.3065 104.324C94.2091 104.795 94.1604 105.168 94.1604 105.444C94.1604 105.769 94.2334 106.02 94.3795 106.199C94.5256 106.377 94.7771 106.466 95.1341 106.466C95.621 106.466 96.0105 106.296 96.3026 105.955C96.5947 105.598 96.8868 105.054 97.1789 104.324H98.2013C97.6009 106.109 96.903 107.31 96.1078 107.927C95.3289 108.527 94.5174 108.828 93.6736 108.828Z" fill="#5C6755"/>
<path d="M105.842 108.828C104.852 108.828 104.122 108.568 103.651 108.049C103.197 107.513 102.97 106.856 102.97 106.077C102.97 105.736 103.01 105.355 103.091 104.933C103.173 104.495 103.254 104.073 103.335 103.667C103.432 103.261 103.497 103.002 103.53 102.888C103.659 102.32 103.781 101.76 103.895 101.208C104.008 100.657 104.065 100.21 104.065 99.8695C104.065 99.0418 103.773 98.628 103.189 98.628C102.767 98.628 102.394 98.839 102.069 99.2609C101.744 99.6666 101.485 100.202 101.29 100.868L99.6347 108.682H96.1293L98.7097 96.5102H102.215L101.947 97.776C102.759 96.8672 103.708 96.4128 104.795 96.4128C105.623 96.4128 106.28 96.64 106.767 97.0944C107.254 97.5488 107.497 98.2385 107.497 99.1635C107.497 99.6342 107.441 100.162 107.327 100.746C107.213 101.314 107.051 102.012 106.84 102.839C106.71 103.342 106.589 103.837 106.475 104.324C106.378 104.795 106.329 105.168 106.329 105.444C106.329 105.769 106.402 106.02 106.548 106.199C106.694 106.377 106.946 106.466 107.303 106.466C107.79 106.466 108.179 106.296 108.471 105.955C108.763 105.598 109.055 105.054 109.348 104.324H110.37C109.769 106.109 109.072 107.31 108.276 107.927C107.497 108.527 106.686 108.828 105.842 108.828Z" fill="#5C6755"/>
<path d="M112.704 108.828C111.503 108.828 110.57 108.519 109.905 107.903C109.239 107.27 108.906 106.288 108.906 104.957C108.906 103.837 109.126 102.604 109.564 101.257C110.002 99.91 110.716 98.7497 111.706 97.776C112.696 96.786 113.954 96.2911 115.479 96.2911C117.264 96.2911 118.157 97.07 118.157 98.628C118.157 99.5368 117.897 100.373 117.378 101.135C116.858 101.898 116.169 102.515 115.309 102.985C114.449 103.44 113.532 103.699 112.558 103.764C112.525 104.251 112.509 104.576 112.509 104.738C112.509 105.533 112.647 106.077 112.923 106.369C113.199 106.645 113.645 106.783 114.262 106.783C115.138 106.783 115.885 106.58 116.501 106.174C117.134 105.769 117.824 105.152 118.571 104.324H119.398C117.597 107.326 115.365 108.828 112.704 108.828ZM112.753 102.596C113.353 102.563 113.921 102.352 114.457 101.963C115.008 101.573 115.447 101.078 115.771 100.478C116.112 99.8776 116.282 99.2447 116.282 98.5793C116.282 97.9139 116.08 97.5812 115.674 97.5812C115.09 97.5812 114.513 98.0924 113.945 99.1148C113.394 100.137 112.996 101.298 112.753 102.596Z" fill="#5C6755"/>
<path d="M120.099 96.5102H123.604L123.288 98.0194C123.84 97.5326 124.335 97.1593 124.773 96.8996C125.227 96.64 125.714 96.5102 126.233 96.5102C126.753 96.5102 127.158 96.6887 127.451 97.0457C127.759 97.4027 127.913 97.8328 127.913 98.3359C127.913 98.8065 127.759 99.2203 127.451 99.5774C127.142 99.9344 126.712 100.113 126.16 100.113C125.803 100.113 125.56 100.032 125.43 99.8695C125.317 99.691 125.227 99.4394 125.162 99.1148C125.114 98.9039 125.065 98.7497 125.016 98.6523C124.968 98.555 124.878 98.5063 124.749 98.5063C124.408 98.5063 124.116 98.5793 123.872 98.7254C123.645 98.8552 123.345 99.0905 122.972 99.4313L121.024 108.682H117.519L120.099 96.5102Z" fill="#5C6755"/>
</svg>
