<svg width="202" height="202" viewBox="0 0 202 202" fill="none" xmlns="http://www.w3.org/2000/svg">
<g clip-path="url(#clip0_109_761)">
<circle cx="101" cy="101" r="101" fill="white"/>
<path d="M101.884 100.259C101.884 89.5932 93.318 80.947 82.7512 80.947C72.1844 80.947 63.6183 89.5932 63.6183 100.259C63.6183 110.924 72.1844 119.57 82.7512 119.57C93.318 119.57 101.884 110.924 101.884 100.259Z" fill="#F08F31" fill-opacity="0.1"/>
<path d="M119.024 123.86C113.39 127.591 107.499 129.101 100.94 127.164C93.6605 125.014 87.5296 116.07 88.2213 108.54C88.3678 106.946 88.8994 105.933 90.63 105.541C93.838 104.816 97.0326 104.23 100.346 104.437C101.442 104.506 101.877 104.883 102.029 106.008C102.323 108.169 103.715 109.389 105.951 109.407C113.042 109.464 120.133 109.441 127.224 109.433C127.859 109.432 128.778 109.498 128.793 108.656C128.813 107.574 127.782 107.871 127.141 107.868C121.957 107.844 116.773 107.848 111.588 107.867C110.586 107.87 109.836 107.712 109.751 106.478C109.653 105.077 110.375 104.76 111.599 104.768C116.425 104.797 121.252 104.797 126.079 104.754C127.022 104.745 128.65 105.148 128.65 103.945C128.651 102.567 127.027 103.244 126.151 103.23C121.445 103.154 116.737 103.186 112.029 103.201C110.827 103.205 109.737 103.228 109.735 101.522C109.733 99.7257 110.977 99.9344 112.091 99.9283C116.977 99.9015 121.863 99.906 126.75 99.8697C127.426 99.8647 128.189 100.104 128.83 99.3945C128.561 98.2374 127.581 98.5387 126.854 98.5343C121.789 98.503 116.724 98.53 111.659 98.5051C109.996 98.4969 109.358 97.5594 109.901 96.1021C110.293 95.0515 111.191 95.1868 112.002 95.184C117.008 95.1665 122.013 95.1856 127.019 95.1511C127.727 95.1462 128.586 95.46 129.115 94.6069C128.906 93.6469 128.127 93.8507 127.535 93.8485C120.384 93.8225 113.234 93.8007 106.083 93.8306C103.963 93.8395 102.875 94.6662 102.364 96.7249C102.091 97.8254 101.533 97.8268 100.591 97.9013C95.1457 98.3315 89.631 98.402 84.5512 100.891C79.3062 103.46 75.4568 107.303 73.1774 112.723C72.7053 113.846 72.8153 114.442 73.7918 115.261C77.7946 118.615 79.9898 122.884 79.8303 128.212C79.8201 128.554 79.9071 128.93 79.3829 129.385C73.6759 118.783 64.1436 114.31 52.1663 113.103C53.9843 111.673 55.5932 111.298 57.1752 110.98C60.1344 110.385 63.1184 110.433 66.0196 111.297C67.2787 111.671 68.0069 111.504 68.5301 110.233C69.3482 108.245 70.644 106.508 71.6784 104.637C73.6582 101.056 73.6679 97.2829 72.4064 93.3209C71.3872 93.606 70.5473 93.8508 69.7022 94.0758C60.0915 96.634 51.3891 88.9535 52.6352 79.0548C53.115 75.2432 54.6473 71.7175 55.4809 68.0025C56.3887 63.9569 56.8504 59.9211 56.0316 55.7971C55.4266 52.7501 53.9181 50.2694 51.6345 48.2147C51.3015 47.9151 50.7446 47.7858 50.7833 47.1787C51.1164 46.8631 51.47 47.0407 51.7942 47.1441C59.111 49.4786 66.486 51.6826 73.2246 55.4831C80.2179 59.4273 85.5371 64.8482 87.7812 72.7836C89.0853 77.3948 88.5291 81.6439 84.8428 85.099C84.4107 85.504 83.9527 85.8976 83.4535 86.2117C80.6146 87.998 80.1658 87.8087 78.2832 85.1028C77.0904 83.3885 76.4478 81.9358 76.9416 79.618C77.9031 75.1043 72.5886 69.107 67.9526 68.9039C64.1109 68.7356 61.7305 71.9588 62.7494 76.1513C63.9034 80.9004 67.9147 84.3561 71.9095 84.456C72.7258 84.4764 73.2195 84.9111 73.6953 85.4703C76.1204 88.3199 77.4048 91.6727 78.0499 95.3083C78.2021 96.1662 78.3364 97.0274 78.4906 97.9578C79.6941 97.8368 80.4343 97.1964 81.2389 96.7452C83.6573 95.3891 86.3362 94.7512 88.9438 93.933C89.9484 93.6178 90.3952 93.1282 90.5102 92.0925C90.6803 90.5604 90.8586 89.0166 91.3912 87.5494C93.8053 80.8987 98.9603 77.8911 105.608 76.9373C115.97 75.4504 125.114 78.6299 133.603 84.3111C141.665 89.7071 148.018 96.9137 154.512 103.973C155.842 105.419 157.17 106.868 158.482 108.331C158.814 108.701 159.363 108.982 159.195 109.631C158.785 109.873 158.487 109.611 158.199 109.434C153.267 106.405 148.038 106.445 142.694 107.986C136.717 109.709 131.845 113.344 127.096 117.17C124.408 119.335 122.033 121.879 119.024 123.86Z" fill="#63A430"/>
<path d="M92.7646 91.4966C92.7646 80.7679 117.977 65.569 152.667 104.55C137.11 90.7812 105.46 70.5756 92.7646 91.4966Z" fill="#B3D573"/>
<path d="M91.3341 110.809C95.1108 120.643 104.638 133.411 132.103 110.809C119.05 124.041 96.6984 136.379 91.3341 110.809Z" fill="#B3D573"/>
<path d="M69.519 91.4967C63.8566 92.3311 52.1385 89.7801 57.7174 66.463C54.2008 77.6685 53.0683 97.0756 69.519 91.4967Z" fill="#B3D573"/>
<path d="M61.1148 51.9792C72.678 58.7741 92.8719 74.9744 81.1418 85.4171C87.7578 81.066 93.0149 68.2869 61.1148 51.9792Z" fill="#B3D573"/>
<path d="M43.1831 138.529C41.9497 138.935 40.9922 139.609 40.3106 140.55C39.6453 141.475 39.3126 142.627 39.3126 144.007C39.3126 144.623 39.3694 145.045 39.483 145.272C39.5966 145.5 39.6534 145.638 39.6534 145.686C37.9169 145.686 37.0487 144.948 37.0487 143.471C37.0487 142.465 37.4301 141.459 38.1928 140.453C38.9718 139.43 39.9617 138.602 41.1626 137.97C42.3798 137.32 43.5888 136.996 44.7897 136.996C45.3902 136.996 46.0069 137.109 46.6398 137.337L46.0799 150.165L51.4353 137.337H54.9407L52.3847 155.253H48.8793L50.4373 144.323L45.8608 155.253H42.5258L43.0127 144.274L38.9474 155.253H37L43.1831 138.529Z" fill="#5C6755"/>
<path d="M58.254 155.399C57.0531 155.399 56.1199 155.091 55.4545 154.474C54.7892 153.841 54.4565 152.859 54.4565 151.529C54.4565 150.409 54.6756 149.175 55.1138 147.828C55.5519 146.481 56.266 145.321 57.2559 144.347C58.2459 143.357 59.5036 142.862 61.0291 142.862C62.8142 142.862 63.7068 143.641 63.7068 145.199C63.7068 146.108 63.4471 146.944 62.9278 147.707C62.4085 148.469 61.7188 149.086 60.8587 149.557C59.9986 150.011 59.0816 150.271 58.1079 150.336C58.0755 150.823 58.0592 151.147 58.0592 151.309C58.0592 152.105 58.1972 152.648 58.4731 152.94C58.749 153.216 59.1952 153.354 59.8119 153.354C60.6883 153.354 61.4348 153.151 62.0515 152.746C62.6844 152.34 63.3741 151.723 64.1206 150.896H64.9483C63.1469 153.898 60.9155 155.399 58.254 155.399ZM58.3027 149.167C58.9031 149.135 59.4711 148.924 60.0067 148.534C60.5584 148.145 60.9966 147.65 61.3212 147.049C61.662 146.449 61.8324 145.816 61.8324 145.151C61.8324 144.485 61.6295 144.153 61.2238 144.153C60.6396 144.153 60.0635 144.664 59.4955 145.686C58.9437 146.709 58.5461 147.869 58.3027 149.167Z" fill="#5C6755"/>
<path d="M67.28 155.399C66.355 155.399 65.5842 155.083 64.9675 154.45C64.3508 153.817 64.0424 152.827 64.0424 151.48C64.0424 150.279 64.2778 149.021 64.7484 147.707C65.2352 146.376 65.9493 145.256 66.8906 144.347C67.848 143.422 68.984 142.96 70.2986 142.96C70.9639 142.96 71.4589 143.073 71.7835 143.301C72.108 143.528 72.2703 143.828 72.2703 144.201V144.372L72.5381 143.082H76.0435L74.2908 151.358C74.2259 151.602 74.1934 151.861 74.1934 152.137C74.1934 152.835 74.5261 153.184 75.1915 153.184C75.6459 153.184 76.0354 152.973 76.3599 152.551C76.7007 152.129 76.9685 151.577 77.1632 150.896H78.1856C77.5852 152.648 76.8387 153.841 75.9461 154.474C75.0698 155.091 74.1853 155.399 73.2927 155.399C72.6111 155.399 72.0594 155.212 71.6374 154.839C71.2317 154.45 70.9883 153.89 70.9071 153.16C70.4365 153.825 69.9091 154.369 69.3248 154.79C68.7568 155.196 68.0752 155.399 67.28 155.399ZM68.8623 153.038C69.268 153.038 69.6656 152.851 70.0551 152.478C70.4608 152.088 70.7367 151.561 70.8828 150.896L72.0512 145.394C72.0512 145.183 71.9701 144.98 71.8078 144.786C71.6455 144.575 71.394 144.469 71.0532 144.469C70.404 144.469 69.8198 144.85 69.3005 145.613C68.7812 146.36 68.3755 147.269 68.0834 148.34C67.7912 149.394 67.6452 150.328 67.6452 151.139C67.6452 151.95 67.7588 152.47 67.986 152.697C68.2294 152.924 68.5215 153.038 68.8623 153.038Z" fill="#5C6755"/>
<path d="M79.7769 155.399C78.9979 155.399 78.365 155.156 77.8781 154.669C77.4075 154.166 77.1722 153.419 77.1722 152.429C77.1722 152.024 77.2371 151.496 77.3669 150.847L79.9716 138.651L83.5744 138.164L80.7749 151.309C80.71 151.553 80.6776 151.788 80.6776 152.015C80.6776 152.665 81.0102 152.989 81.6756 152.989C81.9677 152.989 82.2274 152.94 82.4546 152.843C82.3897 153.654 82.0976 154.287 81.5782 154.742C81.0752 155.18 80.4747 155.399 79.7769 155.399Z" fill="#5C6755"/>
<path d="M93.8185 139.771L97.4213 139.284L95.6929 147.415C96.4719 147.35 97.1859 147.009 97.8351 146.392C98.5005 145.776 99.0198 145.013 99.393 144.104C99.7663 143.195 99.9529 142.303 99.9529 141.426C99.9529 140.453 99.7014 139.657 99.1983 139.041C98.6952 138.424 97.9406 138.116 96.9344 138.116C94.9545 138.116 93.4047 138.635 92.2849 139.674C91.1814 140.712 90.6296 142.165 90.6296 144.031C90.6296 144.631 90.6864 145.053 90.8 145.297C90.9136 145.524 90.9704 145.654 90.9704 145.686C90.0941 145.686 89.4368 145.508 88.9986 145.151C88.5767 144.777 88.3657 144.169 88.3657 143.325C88.3657 142.286 88.7877 141.28 89.6315 140.306C90.4917 139.317 91.5871 138.521 92.9178 137.921C94.2486 137.304 95.5793 136.996 96.9101 136.996C98.1921 136.996 99.2632 137.215 100.123 137.653C100.983 138.091 101.616 138.676 102.022 139.406C102.444 140.12 102.655 140.915 102.655 141.791C102.655 142.846 102.363 143.877 101.779 144.883C101.211 145.889 100.391 146.717 99.32 147.366C98.2489 147.999 97.0155 148.315 95.6199 148.315H95.4982L94.0133 155.253H90.5079L93.8185 139.771Z" fill="#5C6755"/>
<path d="M104.462 155.399C103.683 155.399 103.05 155.156 102.563 154.669C102.093 154.182 101.858 153.452 101.858 152.478C101.858 152.072 101.922 151.545 102.052 150.896L104.657 138.7L108.26 138.213L105.46 151.358C105.395 151.602 105.363 151.861 105.363 152.137C105.363 152.462 105.436 152.697 105.582 152.843C105.744 152.973 106.004 153.038 106.361 153.038C106.832 153.038 107.27 152.843 107.675 152.454C108.081 152.048 108.373 151.529 108.552 150.896H109.574C108.974 152.648 108.203 153.841 107.262 154.474C106.32 155.091 105.387 155.399 104.462 155.399Z" fill="#5C6755"/>
<path d="M111.342 155.399C110.417 155.399 109.646 155.083 109.029 154.45C108.412 153.817 108.104 152.827 108.104 151.48C108.104 150.279 108.339 149.021 108.81 147.707C109.297 146.376 110.011 145.256 110.952 144.347C111.91 143.422 113.046 142.96 114.36 142.96C115.025 142.96 115.52 143.073 115.845 143.301C116.17 143.528 116.332 143.828 116.332 144.201V144.372L116.6 143.082H120.105L118.352 151.358C118.287 151.602 118.255 151.861 118.255 152.137C118.255 152.835 118.588 153.184 119.253 153.184C119.707 153.184 120.097 152.973 120.421 152.551C120.762 152.129 121.03 151.577 121.225 150.896H122.247C121.647 152.648 120.9 153.841 120.008 154.474C119.131 155.091 118.247 155.399 117.354 155.399C116.673 155.399 116.121 155.212 115.699 154.839C115.293 154.45 115.05 153.89 114.969 153.16C114.498 153.825 113.971 154.369 113.386 154.79C112.818 155.196 112.137 155.399 111.342 155.399ZM112.924 153.038C113.33 153.038 113.727 152.851 114.117 152.478C114.522 152.088 114.798 151.561 114.944 150.896L116.113 145.394C116.113 145.183 116.032 144.98 115.869 144.786C115.707 144.575 115.456 144.469 115.115 144.469C114.466 144.469 113.881 144.85 113.362 145.613C112.843 146.36 112.437 147.269 112.145 148.34C111.853 149.394 111.707 150.328 111.707 151.139C111.707 151.95 111.82 152.47 112.048 152.697C112.291 152.924 112.583 153.038 112.924 153.038Z" fill="#5C6755"/>
<path d="M129.9 155.399C128.91 155.399 128.18 155.139 127.709 154.62C127.255 154.085 127.027 153.427 127.027 152.648C127.027 152.308 127.068 151.926 127.149 151.504C127.23 151.066 127.311 150.644 127.392 150.238C127.49 149.833 127.555 149.573 127.587 149.459C127.717 148.891 127.839 148.332 127.952 147.78C128.066 147.228 128.123 146.782 128.123 146.441C128.123 145.613 127.831 145.199 127.246 145.199C126.824 145.199 126.451 145.41 126.127 145.832C125.802 146.238 125.542 146.774 125.348 147.439L123.692 155.253H120.187L122.767 143.082H126.273L126.005 144.347C126.816 143.439 127.766 142.984 128.853 142.984C129.681 142.984 130.338 143.211 130.825 143.666C131.312 144.12 131.555 144.81 131.555 145.735C131.555 146.206 131.498 146.733 131.385 147.317C131.271 147.885 131.109 148.583 130.898 149.411C130.768 149.914 130.646 150.409 130.533 150.896C130.435 151.366 130.387 151.74 130.387 152.015C130.387 152.34 130.46 152.592 130.606 152.77C130.752 152.949 131.003 153.038 131.36 153.038C131.847 153.038 132.237 152.867 132.529 152.527C132.821 152.17 133.113 151.626 133.405 150.896H134.428C133.827 152.681 133.129 153.882 132.334 154.498C131.555 155.099 130.744 155.399 129.9 155.399Z" fill="#5C6755"/>
<path d="M142.068 155.399C141.078 155.399 140.348 155.139 139.877 154.62C139.423 154.085 139.196 153.427 139.196 152.648C139.196 152.308 139.236 151.926 139.318 151.504C139.399 151.066 139.48 150.644 139.561 150.238C139.658 149.833 139.723 149.573 139.756 149.459C139.886 148.891 140.007 148.332 140.121 147.78C140.235 147.228 140.291 146.782 140.291 146.441C140.291 145.613 139.999 145.199 139.415 145.199C138.993 145.199 138.62 145.41 138.295 145.832C137.971 146.238 137.711 146.774 137.516 147.439L135.861 155.253H132.356L134.936 143.082H138.441L138.173 144.347C138.985 143.439 139.934 142.984 141.022 142.984C141.849 142.984 142.507 143.211 142.993 143.666C143.48 144.12 143.724 144.81 143.724 145.735C143.724 146.206 143.667 146.733 143.553 147.317C143.44 147.885 143.277 148.583 143.066 149.411C142.937 149.914 142.815 150.409 142.701 150.896C142.604 151.366 142.555 151.74 142.555 152.015C142.555 152.34 142.628 152.592 142.774 152.77C142.92 152.949 143.172 153.038 143.529 153.038C144.016 153.038 144.405 152.867 144.697 152.527C144.989 152.17 145.282 151.626 145.574 150.896H146.596C145.996 152.681 145.298 153.882 144.503 154.498C143.724 155.099 142.912 155.399 142.068 155.399Z" fill="#5C6755"/>
<path d="M148.93 155.399C147.729 155.399 146.796 155.091 146.131 154.474C145.465 153.841 145.133 152.859 145.133 151.529C145.133 150.409 145.352 149.175 145.79 147.828C146.228 146.481 146.942 145.321 147.932 144.347C148.922 143.357 150.18 142.862 151.705 142.862C153.49 142.862 154.383 143.641 154.383 145.199C154.383 146.108 154.123 146.944 153.604 147.707C153.085 148.469 152.395 149.086 151.535 149.557C150.675 150.011 149.758 150.271 148.784 150.336C148.752 150.823 148.735 151.147 148.735 151.309C148.735 152.105 148.873 152.648 149.149 152.94C149.425 153.216 149.871 153.354 150.488 153.354C151.364 153.354 152.111 153.151 152.728 152.746C153.361 152.34 154.05 151.723 154.797 150.896H155.624C153.823 153.898 151.592 155.399 148.93 155.399ZM148.979 149.167C149.579 149.135 150.147 148.924 150.683 148.534C151.235 148.145 151.673 147.65 151.997 147.049C152.338 146.449 152.509 145.816 152.509 145.151C152.509 144.485 152.306 144.153 151.9 144.153C151.316 144.153 150.74 144.664 150.172 145.686C149.62 146.709 149.222 147.869 148.979 149.167Z" fill="#5C6755"/>
<path d="M156.325 143.082H159.831L159.514 144.591C160.066 144.104 160.561 143.731 160.999 143.471C161.453 143.211 161.94 143.082 162.46 143.082C162.979 143.082 163.385 143.26 163.677 143.617C163.985 143.974 164.139 144.404 164.139 144.907C164.139 145.378 163.985 145.792 163.677 146.149C163.368 146.506 162.938 146.684 162.387 146.684C162.03 146.684 161.786 146.603 161.656 146.441C161.543 146.262 161.453 146.011 161.389 145.686C161.34 145.475 161.291 145.321 161.243 145.224C161.194 145.126 161.105 145.078 160.975 145.078C160.634 145.078 160.342 145.151 160.098 145.297C159.871 145.427 159.571 145.662 159.198 146.003L157.25 155.253H153.745L156.325 143.082Z" fill="#5C6755"/>
</g>
<defs>
<clipPath id="clip0_109_761">
<rect width="202" height="202" fill="white"/>
</clipPath>
</defs>
</svg>
